<svg width="64" height="64" xmlns="http://www.w3.org/2000/svg">
  <!-- 像素风格的程序猿头像 -->
  <g>
    <!-- 头部轮廓 -->
    <rect x="16" y="8" width="32" height="32" fill="#ffdbac"/>
    <rect x="12" y="12" width="8" height="24" fill="#ffdbac"/>
    <rect x="44" y="12" width="8" height="24" fill="#ffdbac"/>
    
    <!-- 头发 -->
    <rect x="16" y="4" width="32" height="8" fill="#8b4513"/>
    <rect x="12" y="8" width="8" height="8" fill="#8b4513"/>
    <rect x="44" y="8" width="8" height="8" fill="#8b4513"/>
    
    <!-- 眼睛 -->
    <rect x="20" y="16" width="4" height="4" fill="#000000"/>
    <rect x="40" y="16" width="4" height="4" fill="#000000"/>
    
    <!-- 眼镜框 -->
    <rect x="18" y="14" width="8" height="8" fill="none" stroke="#000000" stroke-width="2"/>
    <rect x="38" y="14" width="8" height="8" fill="none" stroke="#000000" stroke-width="2"/>
    <rect x="26" y="17" width="12" height="2" fill="#000000"/>
    
    <!-- 鼻子 -->
    <rect x="30" y="22" width="4" height="2" fill="#ffb380"/>
    
    <!-- 嘴巴 -->
    <rect x="28" y="26" width="8" height="2" fill="#000000"/>
    
    <!-- 身体 -->
    <rect x="20" y="40" width="24" height="20" fill="#4169e1"/>
    
    <!-- 手臂 -->
    <rect x="12" y="44" width="8" height="12" fill="#ffdbac"/>
    <rect x="44" y="44" width="8" height="12" fill="#ffdbac"/>
    
    <!-- 键盘 -->
    <rect x="24" y="52" width="16" height="4" fill="#333333"/>
    <rect x="26" y="53" width="2" height="2" fill="#ffffff"/>
    <rect x="30" y="53" width="2" height="2" fill="#ffffff"/>
    <rect x="34" y="53" width="2" height="2" fill="#ffffff"/>
    <rect x="38" y="53" width="2" height="2" fill="#ffffff"/>
  </g>
</svg>
